<svg xmlns="http://www.w3.org/2000/svg" xmlns:xlink="http://www.w3.org/1999/xlink" width="500" zoomAndPan="magnify" viewBox="0 0 375 374.999991" height="500" preserveAspectRatio="xMidYMid meet" version="1.0"><defs><g/><clipPath id="id1"><path d="M 88 89 L 231 89 L 231 215 L 88 215 Z M 88 89 " clip-rule="nonzero"/></clipPath><clipPath id="id2"><path d="M 246.761719 201.417969 L 128.378906 248.765625 L 72.675781 109.492188 L 191.058594 62.144531 Z M 246.761719 201.417969 " clip-rule="nonzero"/></clipPath><clipPath id="id3"><path d="M 246.761719 201.417969 L 128.378906 248.765625 L 72.675781 109.492188 L 191.058594 62.144531 Z M 246.761719 201.417969 " clip-rule="nonzero"/></clipPath><clipPath id="id4"><path d="M 87.027344 69.8125 L 312.777344 69.8125 L 312.777344 240.8125 L 87.027344 240.8125 Z M 87.027344 69.8125 " clip-rule="nonzero"/></clipPath></defs><rect x="-37.5" width="450" fill="#ffffff" y="-37.499999" height="449.999989" fill-opacity="1"/><rect x="-37.5" width="450" fill="#ffffff" y="-37.499999" height="449.999989" fill-opacity="1"/><rect x="-37.5" width="450" fill="#ffffff" y="-37.499999" height="449.999989" fill-opacity="1"/><rect x="-37.5" width="450" fill="#ffffff" y="-37.499999" height="449.999989" fill-opacity="1"/><g clip-path="url(#id1)"><g clip-path="url(#id2)"><g clip-path="url(#id3)"><path fill="#d9d9d9" d="M 219.953125 206.554688 C 209.105469 216.476562 200.097656 211.59375 190.15625 214 C 180.210938 216.402344 137.601562 217.066406 112.558594 181.796875 C 87.515625 146.527344 80.523438 125.109375 97.46875 108.949219 C 114.417969 92.792969 144.941406 81.390625 160.675781 95.394531 C 176.414062 109.398438 217.605469 154.402344 224.023438 162.203125 C 237.617188 178.636719 227.980469 199.210938 219.953125 206.554688 Z M 219.953125 206.554688 " fill-opacity="1" fill-rule="nonzero"/></g></g></g><g clip-path="url(#id4)"><path stroke-linecap="round" transform="matrix(0.0288934, 0, 0, -0.0288476, -9.893884, 240.282392)" fill="none" stroke-linejoin="round" d="M 16300.034745 681.151714 C 14216.409201 680.203844 12132.783658 679.255974 11088.402181 664.090058 C 10043.885509 648.924142 10038.612904 619.54018 10104.04729 738.565539 C 10169.616872 857.590897 10306.02864 1124.890166 10445.009113 1397.605833 C 10583.989587 1670.456911 10725.809156 1948.453567 10826.123856 2159.693111 C 10926.30336 2371.068065 10985.113191 2515.415086 11014.585704 2596.931884 C 11044.058217 2678.448683 11044.058217 2697.270668 10876.821986 2683.865081 C 10709.720949 2670.459495 10375.518877 2624.961747 10079.982578 2584.880398 C 9784.581474 2544.799048 9527.846144 2509.998688 9400.898027 2488.603913 C 9273.814714 2467.209139 9276.518614 2459.219951 9105.361728 2055.427438 C 8934.204841 1651.634926 8589.322362 852.174498 8418.165476 439.038698 C 8247.008589 25.902898 8249.712489 -0.772865 8542.544888 98.076409 C 8835.242091 197.061093 9418.202988 421.706223 9634.785399 503.223021 C 9851.367811 584.73982 9701.706931 523.263696 9416.851038 415.071135 C 9132.13034 306.743163 8712.349824 151.563345 8487.655712 75.462945 C 8263.096796 -0.772865 8233.624283 1.935335 7876.709448 88.733121 C 7519.659418 175.666318 6835.167066 346.824513 6499.613044 435.111809 C 6164.059021 523.263696 6177.443327 528.680094 6226.924702 546.01257 C 6276.270882 563.345045 6361.849325 592.864417 6561.126775 644.997254 C 6760.269029 697.13009 7073.110289 772.0118 7303.077007 830.779724 C 7533.043724 889.683058 7680.135899 932.472607 7784.506449 957.79427 C 7888.741804 983.251344 7950.255535 991.240531 7986.352604 996.52152 C 8022.449672 1001.937919 8033.130078 1004.646118 8021.097722 1039.311069 C 8009.065366 1074.111429 7974.320247 1141.003952 7950.255535 1205.188275 C 7926.190823 1269.372598 7912.806516 1330.848721 7903.47806 1349.535296 C 7894.01441 1368.221871 7888.741804 1344.254308 7902.12611 1281.288674 C 7915.510417 1218.458451 7947.551635 1116.900978 7989.056504 1055.424854 C 8030.426178 993.948731 8081.259503 972.553956 8121.277227 968.491658 C 8161.430146 964.429359 8190.902659 977.834945 8192.254609 1019.270394 C 8193.606559 1060.705843 8166.837946 1130.306564 8148.045839 1202.480075 C 8129.388928 1274.653586 8118.708521 1349.535296 8118.708521 1362.940883 C 8118.708521 1376.346469 8129.388928 1328.140522 8138.717383 1255.967011 C 8148.045839 1183.7935 8156.15754 1087.517016 8157.50949 1016.562195 C 8158.726245 945.742784 8153.45364 900.245036 8161.430146 870.861073 C 8169.541846 841.477111 8190.902659 828.071525 8217.671271 822.790536 C 8244.304689 817.374138 8276.481102 820.082337 8292.434113 842.831211 C 8308.52232 865.580085 8308.52232 908.369634 8311.22622 960.50247 C 8313.930121 1012.635306 8319.202726 1074.111429 8321.906626 1131.660664 C 8324.610527 1189.074489 8324.610527 1242.561425 8323.258576 1217.239761 C 8321.906626 1191.782688 8319.202726 1087.517016 8320.554676 1019.270394 C 8321.906626 951.159182 8327.179232 919.067021 8341.915488 907.015534 C 8356.651745 894.964047 8380.716457 902.953235 8399.508564 909.723733 C 8418.165476 916.358821 8431.549782 921.77522 8438.174338 941.815895 C 8444.934088 961.856569 8444.934088 996.65693 8443.582138 1058.133054 C 8442.230188 1119.609177 8439.526288 1207.896474 8442.230188 1203.834175 C 8444.934088 1199.771876 8452.910594 1103.495392 8468.998801 1056.778954 C 8484.951812 1009.927106 8509.016525 1012.635306 8526.456681 1012.635306 C 8543.896838 1012.635306 8554.577244 1009.927106 8559.84985 1024.686793 C 8565.25765 1039.311069 8565.25765 1071.40323 8558.497899 1112.838679 C 8551.873344 1154.409538 8538.489037 1205.188275 8510.368475 1258.67521 C 8482.383107 1312.162146 8439.526288 1368.221871 8395.452713 1417.781918 C 8351.379139 1467.206555 8305.81842 1509.996104 8264.448746 1551.431552 C 8222.943877 1592.867001 8185.494858 1632.948351 8152.10169 1670.456911 C 8118.708521 1707.830061 8089.236009 1742.630422 8066.523246 1774.722583 C 8043.810484 1806.814745 8027.722278 1836.198707 8022.449672 1864.228569 C 8017.041872 1892.393842 8022.449672 1919.069605 7962.287891 1943.172578 C 7902.12611 1967.275552 7776.394748 1988.670326 7677.431998 1975.26474 C 7578.604444 1961.859153 7506.410307 1913.788616 7476.937794 1864.228569 C 7447.465281 1814.803932 7460.849587 1764.025196 7452.873082 1707.830061 C 7444.896576 1651.634926 7415.424063 1590.158802 7392.711301 1532.744977 C 7369.998538 1475.195743 7353.910332 1421.708807 7361.886838 1368.221871 C 7369.998538 1314.734935 7402.039757 1261.248 7416.776013 1207.896474 C 7431.512269 1154.409538 7428.808369 1100.922602 7414.072113 1059.487153 C 7399.335856 1017.916294 7372.702439 988.532332 7380.678944 973.908056 C 7388.65545 959.14837 7431.512269 959.14837 7484.9143 968.491658 C 7538.451525 977.834945 7602.669156 996.65693 7638.766225 1048.789766 C 7674.863293 1100.922602 7682.839799 1186.36629 7662.830937 1258.67521 C 7642.68688 1330.848721 7594.557455 1389.616646 7587.9329 1435.114393 C 7581.173149 1480.612141 7616.053462 1512.704303 7652.150531 1520.693491 C 7688.112404 1528.682679 7725.561423 1512.704303 7750.978086 1493.882318 C 7776.394748 1475.195743 7789.779054 1453.800968 7767.066292 1472.487543 C 7744.35353 1491.309528 7685.543699 1550.077453 7664.047692 1592.867001 C 7642.68688 1635.65655 7658.775087 1662.332313 7682.839799 1681.154298 C 7706.904511 1699.840873 7738.945729 1710.53826 7776.394748 1705.121862 C 7813.843767 1699.840873 7856.565391 1678.446099 7894.01441 1662.332313 C 7931.463428 1646.353937 7963.639841 1635.65655 7987.704554 1646.353937 C 8011.769266 1657.051324 8027.722278 1689.143486 8043.810484 1703.903172 C 8059.898691 1718.527448 8075.851702 1715.819249 8086.532108 1761.316997 C 8097.212514 1806.814745 8102.620315 1900.38303 8101.268365 1963.213253 C 8100.05161 2026.043476 8091.939909 2058.135638 8116.004621 2120.965861 C 8140.069334 2183.796084 8196.175264 2277.364369 8181.574203 2360.235267 C 8166.837946 2443.241575 8081.259503 2515.415086 7947.551635 2562.131524 C 7813.843767 2608.983371 7632.006474 2630.378146 7566.572088 2661.116207 C 7501.002506 2691.854269 7551.835831 2731.935619 7626.733868 2748.049404 C 7701.496711 2764.02778 7800.45946 2756.038592 7879.413348 2734.643818 C 7958.232041 2713.249044 8017.041872 2678.448683 8058.546741 2627.669946 C 8100.05161 2576.89121 8123.981127 2509.998688 8121.277227 2518.123285 C 8118.708521 2526.112473 8089.236009 2608.983371 8081.259503 2677.094583 C 8073.147802 2745.341205 8086.532108 2798.828141 8098.564465 2840.26359 C 8110.596821 2881.699039 8121.277227 2911.083001 8085.180158 2940.602373 C 8049.218285 2969.986335 7966.208547 2999.370297 7899.42221 3080.887096 C 7832.500679 3162.539304 7781.802549 3296.188939 7714.881017 3507.428482 C 7648.094681 3718.668026 7565.220137 4007.497479 7526.419169 4158.479589 C 7487.6182 4309.597109 7493.026 4323.002695 7478.289744 4317.586297 C 7463.553488 4312.305308 7428.808369 4288.202335 7422.048619 4250.829185 C 7415.424063 4213.320625 7436.784875 4162.541888 7486.26625 4157.2609 C 7535.747625 4151.844501 7613.349562 4191.92585 7660.127037 4191.92585 C 7706.904511 4191.92585 7722.992718 4151.844501 7729.617274 4139.793014 C 7736.241829 4127.741527 7733.673124 4143.855313 7737.593779 4186.644862 C 7741.64963 4229.43441 7752.330036 4298.899722 7773.690848 4343.04337 C 7795.05166 4387.187018 7827.228073 4405.873593 7855.348636 4425.914268 C 7883.334004 4445.954943 7907.398716 4467.349717 7914.158467 4503.504177 C 7920.783022 4539.523228 7910.102616 4590.301964 7907.398716 4626.456425 C 7904.694816 4662.610885 7910.102616 4684.005659 7902.12611 4670.600073 C 7894.01441 4657.194487 7872.653597 4609.123949 7866.029042 4567.6885 C 7859.269291 4526.253051 7867.380992 4491.452691 7881.982053 4463.287418 C 7896.71831 4435.257556 7918.079122 4413.862781 7927.542773 4399.238505 C 7936.871229 4384.478819 7934.167328 4376.489631 7954.17619 4401.811295 C 7974.320247 4427.268368 8017.041872 4486.036292 8049.218285 4523.544852 C 8081.259503 4560.918002 8102.620315 4577.031788 8110.596821 4613.050838 C 8118.708521 4649.205299 8113.300721 4705.400434 8105.324215 4752.116871 C 8097.212514 4798.968719 8086.532108 4836.341869 8098.564465 4860.444843 C 8110.596821 4884.547816 8145.341939 4895.245203 8176.166402 4911.223579 C 8206.85567 4927.337365 8233.624283 4948.732139 8228.351677 4990.167588 C 8222.943877 5031.603037 8185.494858 5093.079161 8172.110552 5141.149698 C 8158.726245 5189.355645 8169.541846 5224.156006 8172.110552 5241.488481 C 8174.814452 5258.820957 8169.541846 5258.820957 8168.189896 5236.072083 C 8166.837946 5213.458619 8169.541846 5167.960871 8197.527214 5149.274296 C 8225.647777 5130.452311 8279.049807 5138.576909 8296.489964 5130.452311 C 8313.930121 5122.463123 8295.138014 5098.495559 8281.753707 5125.171322 C 8268.369401 5151.847085 8260.392895 5229.436994 8261.744845 5286.986229 C 8263.096796 5344.400054 8273.777202 5381.908614 8283.105658 5421.989963 C 8292.434113 5462.071313 8300.545814 5504.860861 8276.481102 5554.285498 C 8252.41639 5603.845545 8196.175264 5659.90527 8161.430146 5709.465317 C 8126.685027 5758.889954 8113.300721 5801.679502 8116.004621 5831.605104 C 8118.708521 5861.530706 8137.365433 5878.727772 8145.341939 5855.978898 C 8153.45364 5833.230024 8150.74974 5770.670621 8110.596821 5748.734206 C 8070.579097 5726.797792 7992.977159 5745.484367 7918.079122 5732.214191 C 7843.31628 5718.808604 7771.122143 5673.310856 7738.945729 5589.085859 C 7706.904511 5504.860861 7714.881017 5381.908614 7724.209473 5290.913118 C 7733.673124 5200.053032 7744.35353 5141.149698 7709.608412 5110.411636 C 7674.863293 5079.673574 7594.557455 5076.965375 7537.099575 5066.267988 C 7479.641694 5055.570601 7444.896576 5036.884026 7439.488775 4992.740377 C 7434.21617 4948.732139 7458.280882 4879.131418 7472.881943 4828.352681 C 7487.6182 4777.573945 7493.026 4745.481783 7471.529993 4726.795208 C 7450.169181 4707.973223 7402.039757 4702.692235 7375.271144 4709.327323 C 7348.637726 4716.097821 7343.229926 4734.784396 7382.030895 4738.846695 C 7420.831863 4742.773584 7503.706406 4732.076197 7573.196643 4760.106059 C 7642.68688 4788.271332 7698.792811 4855.163854 7702.848661 4921.920966 C 7706.904511 4988.813488 7658.775087 5055.570601 7617.270218 5110.411636 C 7575.900544 5165.252671 7541.155425 5208.04222 7538.451525 5301.610505 C 7535.747625 5395.17879 7565.220137 5539.661222 7566.572088 5630.521308 C 7567.788843 5721.516804 7541.155425 5758.889954 7522.363318 5794.231954 C 7503.706406 5829.438545 7493.026 5862.613986 7496.946656 5879.269412 C 7501.002506 5895.789427 7519.659418 5895.789427 7529.123069 5860.447427 C 7538.451525 5825.240836 7538.451525 5754.692245 7521.011368 5699.309569 C 7503.706406 5643.926894 7468.961288 5603.845545 7439.488775 5577.034372 C 7410.016262 5550.358609 7385.95155 5536.953023 7359.318132 5508.92316 C 7332.54952 5480.757888 7303.077007 5437.968339 7279.012295 5381.908614 C 7254.947582 5325.713479 7236.29067 5256.112757 7216.146613 5197.344833 C 7196.137751 5138.576909 7174.776939 5090.370961 7126.647515 5047.581413 C 7078.51809 5004.791864 7003.620053 4967.418714 6950.218022 4921.920966 C 6896.680797 4876.423218 6864.504384 4822.936283 6823.13471 4786.917232 C 6781.765036 4750.762772 6730.931711 4732.076197 6686.722942 4686.578449 C 6642.649367 4641.216111 6605.200349 4569.0426 6541.117913 4555.637014 C 6476.900281 4542.231427 6385.914037 4587.729175 6300.335594 4667.891874 C 6214.757151 4748.189982 6134.586508 4863.153042 6077.128627 5043.654524 C 6019.670747 5224.156006 5984.790433 5470.0605 5998.17474 5623.07376 C 6011.559046 5775.951609 6073.072777 5835.938223 6093.216834 5825.240836 C 6113.225696 5814.543449 6091.864884 5733.16206 6051.711965 5659.09281 C 6011.559046 5585.02356 5952.749215 5518.266448 5938.148154 5460.717213 C 5923.276702 5403.303388 5952.749215 5355.097441 5983.573678 5310.953793 C 6014.262946 5266.945554 6046.304164 5226.728795 6059.688471 5180.012358 C 6073.072777 5133.16051 6067.800171 5079.673574 6039.679609 5023.478439 C 6011.559046 4967.418714 5960.860916 4908.51538 5948.693365 4857.736643 C 5936.796204 4806.957907 5963.429621 4764.168358 5970.189372 4725.441108 C 5976.813928 4686.713859 5963.429621 4651.913498 5934.092303 4621.175436 C 5904.61979 4590.301964 5859.194266 4563.626201 5845.80996 4524.898952 C 5832.425653 4486.036292 5851.21776 4435.257556 5849.86581 4391.113907 C 5848.51386 4346.970259 5827.017853 4309.597109 5835.129554 4270.869859 C 5843.106059 4232.0072 5880.555078 4191.92585 5864.602067 4201.269138 C 5848.51386 4210.612425 5779.023623 4269.51576 5736.166804 4321.648596 C 5693.44518 4373.781432 5677.356973 4419.27918 5680.060874 4462.068728 C 5682.764774 4504.858277 5704.125586 4544.939626 5701.421686 4578.385888 C 5698.717785 4611.696739 5672.084368 4638.507912 5668.028517 4654.486287 C 5663.972667 4670.600073 5682.764774 4675.881062 5693.44518 4646.497099 C 5704.125586 4617.113137 5706.829486 4552.928814 5682.764774 4507.431066 C 5658.700061 4462.068728 5607.866737 4435.257556 5575.690323 4408.581793 C 5543.649105 4381.77062 5530.264799 4355.094857 5532.968699 4325.710895 C 5535.672599 4296.191523 5554.329511 4264.099361 5551.625611 4262.745261 C 5549.056906 4261.526572 5524.992193 4290.910534 5510.255937 4333.700083 C 5495.519681 4376.489631 5490.11188 4432.549356 5454.150007 4478.047104 C 5417.917743 4523.544852 5351.131406 4558.209803 5292.321576 4586.375075 C 5233.511745 4614.404938 5182.67842 4635.799712 5170.646064 4667.891874 C 5158.613708 4699.984035 5185.38232 4742.773584 5177.270619 4777.573945 C 5169.294114 4812.374305 5126.57249 4839.050068 5091.692176 4900.526192 C 5056.947058 4962.002316 5030.31364 5058.2788 5006.248928 5129.233621 C 4982.184215 5200.053032 4960.823403 5245.55078 4952.711703 5286.986229 C 4944.735197 5328.421678 4950.007802 5365.794828 4975.424465 5403.303388 C 5000.841127 5440.676538 5046.266652 5478.185098 5071.683314 5515.558248 C 5097.099977 5552.931398 5102.507777 5590.439958 5093.179321 5630.521308 C 5083.71567 5670.602657 5059.650958 5713.392206 5054.243157 5748.192566 C 5048.970552 5782.992927 5062.354858 5809.66869 5098.451927 5823.074277 C 5134.548995 5836.479863 5193.358826 5836.479863 5209.447033 5806.960491 C 5225.400044 5777.576529 5198.766627 5718.808604 5154.557857 5650.561982 C 5110.484283 5582.450771 5048.970552 5504.860861 4978.128365 5455.436224 C 4907.286178 5405.876178 4827.115535 5384.481403 4781.554816 5363.086629 C 4736.129291 5341.691855 4725.448885 5320.29708 4740.185142 5254.894068 C 4754.786203 5189.355645 4794.939122 5079.673574 4848.476347 4928.691464 C 4901.878378 4777.573945 4968.799909 4585.020976 5086.419571 4381.77062 C 5204.039232 4178.520264 5372.492219 3964.707931 5561.089262 3850.963561 C 5749.55111 3737.354601 5958.157016 3724.084425 6098.489439 3764.165774 C 6238.821863 3804.247123 6311.016 3897.815409 6361.849325 3992.737793 C 6412.68265 4087.660178 6442.155163 4183.936662 6462.164025 4256.110173 C 6482.172887 4328.283684 6492.853293 4376.489631 6500.964994 4411.154582 C 6508.941499 4445.954943 6514.3493 4467.349717 6487.580687 4475.338905 C 6460.812075 4483.463503 6402.002244 4478.047104 6369.961026 4483.463503 C 6337.784613 4488.744491 6332.512007 4504.858277 6311.151195 4465.995617 C 6289.655188 4427.268368 6252.206169 4333.700083 6198.804139 4248.120985 C 6145.266914 4162.541888 6075.776677 4084.951979 6010.207096 4026.184054 C 5944.772709 3967.28072 5883.258978 3927.199371 5801.736385 3928.55347 C 5720.213792 3929.90757 5618.547143 3972.697119 5502.279431 4075.608691 C 5385.876525 4178.520264 5254.872557 4341.689271 5159.965658 4504.858277 C 5065.058759 4667.891874 5006.248928 4831.06088 4966.096009 4963.356415 C 4925.94309 5095.78736 4904.582278 5197.344833 4884.573416 5237.426182 C 4864.429359 5277.642942 4845.772447 5256.112757 4778.986111 5232.145194 C 4712.064579 5208.04222 4597.013623 5181.366457 4507.514524 5161.325783 C 4417.88023 5141.149698 4353.797794 5127.879521 4252.131144 5006.145964 C 4150.599689 4884.547816 4011.484021 4654.486287 3924.553627 4359.021746 C 3837.758429 4063.557204 3802.878115 3702.55424 3757.452591 3451.233347 C 3712.027067 3199.912454 3655.921136 3058.138222 3626.448623 2953.87255 C 3596.97611 2849.606877 3594.407405 2782.849765 3614.416267 2748.049404 C 3634.425129 2713.249044 3677.281948 2710.540844 3740.147629 2723.946431 C 3802.878115 2737.352017 3885.752658 2766.735979 3951.32224 2782.849765 C 4016.756626 2798.828141 4064.886051 2801.53634 4080.974258 2784.068455 C 4097.062464 2766.735979 4080.974258 2729.362829 4016.756626 2697.270668 C 3952.67419 2665.178506 3840.327134 2638.367333 3757.452591 2611.691571 C 3674.578048 2584.880398 3621.040823 2558.204635 3583.591804 2544.799048 C 3546.27798 2531.393462 3524.781973 2531.393462 3528.837824 2566.193823 C 3532.893674 2600.994183 3562.230992 2670.459495 3558.310337 2677.094583 C 3554.254486 2683.865081 3516.805468 2627.669946 3491.388805 2567.547922 C 3465.972143 2507.290488 3452.587836 2443.241575 3476.652549 2390.973329 C 3500.717261 2338.840493 3562.230992 2298.759144 3609.008466 2261.385994 C 3655.921136 2223.877434 3687.962354 2189.212483 3714.730967 2157.120321 C 3741.364384 2125.02816 3762.860392 2095.508788 3802.878115 2083.592711 C 3843.031034 2071.541224 3901.840865 2076.822213 3949.97029 2115.684872 C 3998.099714 2154.412122 4035.548733 2226.585633 4066.373196 2285.488967 C 4097.062464 2344.256892 4121.127176 2389.75464 4163.848801 2395.035628 C 4206.70562 2400.452027 4268.219351 2365.651666 4322.973331 2324.216217 C 4377.862507 2282.780768 4425.991931 2234.574821 4462.089 2187.858383 C 4498.186068 2141.006536 4522.250781 2095.508788 4534.283137 2056.781538 C 4546.315493 2018.054288 4546.315493 1985.962127 4523.602731 1965.921452 C 4500.754773 1945.880778 4455.329249 1937.75618 4411.255675 1947.099467 C 4367.1821 1956.578165 4324.325281 1983.253928 4292.284063 2012.63789 C 4260.10765 2042.021852 4238.746838 2074.114014 4211.978225 2102.279286 C 4185.344808 2130.309149 4153.168395 2154.412122 4131.807583 2153.058023 C 4110.44677 2151.703923 4099.766364 2125.02816 4114.502621 2103.633386 C 4129.103682 2082.238611 4169.256601 2066.124826 4165.200751 2056.781538 C 4161.1449 2047.438251 4113.015476 2044.730051 4060.965396 2035.386764 C 4008.78012 2026.043476 3952.67419 2010.065101 3934.017278 1999.367713 C 3915.225171 1988.670326 3934.017278 1983.253928 3964.706546 1991.243116 C 3995.531009 1999.367713 4038.252633 2020.762488 4085.030108 2032.678565 C 4131.807583 2044.730051 4182.640907 2047.438251 4220.089926 2035.386764 C 4257.538945 2023.335277 4281.603657 1996.659514 4302.964469 1968.629652 C 4324.325281 1940.464379 4343.117388 1911.080417 4327.029182 1884.269244 C 4310.940975 1857.593481 4260.10765 1833.490507 4199.945869 1794.763258 C 4139.919283 1756.036008 4070.293852 1702.549072 4071.645802 1706.475961 C 4072.997752 1710.53826 4145.191889 1772.014384 4206.70562 1809.387534 C 4268.219351 1846.896094 4319.052676 1860.30168 4352.445844 1858.947581 C 4385.839012 1857.593481 4401.927219 1841.615105 4407.199824 1808.168844 C 4412.607625 1774.722583 4407.199824 1723.943847 4393.815518 1689.143486 C 4380.566407 1654.343125 4359.0704 1635.65655 4316.348776 1611.553577 C 4273.491956 1587.586013 4209.40952 1558.066641 4173.312452 1539.380066 C 4137.215383 1520.693491 4129.103682 1512.704303 4159.928145 1532.744977 C 4190.617413 1552.785652 4260.10765 1600.856189 4308.237075 1639.718849 C 4356.366499 1678.446099 4383.135112 1707.830061 4408.551775 1722.589747 C 4433.968437 1737.214023 4458.033149 1737.214023 4466.009655 1707.830061 C 4474.121356 1678.446099 4466.009655 1619.678174 4453.977299 1575.534526 C 4441.944943 1531.390878 4425.991931 1502.006916 4407.199824 1473.841643 C 4388.542913 1445.811781 4367.1821 1419.000608 4347.038043 1400.314033 C 4327.029182 1381.627458 4308.237075 1370.93007 4285.524312 1365.513672 C 4262.81155 1360.232683 4236.042938 1360.232683 4206.70562 1366.867772 C 4177.233107 1373.63827 4145.191889 1387.043856 4143.839939 1384.335657 C 4142.487989 1381.627458 4171.960501 1362.940883 4205.35367 1356.170384 C 4238.746838 1349.535296 4276.195857 1354.951695 4313.644875 1372.28417 C 4351.093894 1389.616646 4388.542913 1419.000608 4423.288031 1441.749482 C 4458.033149 1464.498356 4490.074367 1480.612141 4503.458674 1471.268854 C 4516.84298 1461.790156 4511.570375 1427.125206 4499.538018 1389.616646 C 4487.505662 1352.243495 4468.713555 1312.162146 4444.648843 1283.996874 C 4420.584131 1255.967011 4391.246813 1239.853225 4363.12625 1234.572237 C 4335.005687 1229.155838 4308.237075 1234.572237 4286.876263 1254.612911 C 4265.515451 1274.653586 4249.427244 1309.453947 4221.441876 1332.202821 C 4193.321314 1354.951695 4153.168395 1365.513672 4122.479127 1380.273358 C 4091.789859 1395.033044 4070.293852 1413.719619 4051.63694 1427.125206 C 4032.844833 1440.395382 4016.756626 1448.51998 3996.747764 1459.217367 C 3976.738902 1469.914754 3952.67419 1483.184931 3944.697684 1503.361015 C 3936.585983 1523.40169 3944.697684 1550.077453 3949.97029 1567.409928 C 3955.37809 1584.877814 3958.081991 1592.867001 3940.641834 1611.553577 C 3923.201677 1630.240152 3885.752658 1659.759524 3857.767291 1685.081187 C 3829.646728 1710.53826 3810.989816 1731.933034 3810.989816 1759.962897 C 3810.989816 1788.12817 3829.646728 1822.79312 3849.65559 1870.999068 C 3869.799647 1919.069605 3891.160459 1980.545728 3901.840865 2031.459875 C 3912.521271 2082.238611 3912.521271 2122.319961 3924.553627 2166.463609 C 3936.585983 2210.607257 3960.650696 2258.677794 3986.067358 2305.529642 C 4011.484021 2352.24608 4038.252633 2397.743827 4080.974258 2429.835989 C 4123.831077 2461.92815 4182.640907 2480.614725 4241.450738 2477.906526 C 4300.260569 2475.333737 4359.0704 2451.230763 4405.847874 2408.441215 C 4452.625349 2365.651666 4487.505662 2304.175542 4511.570375 2255.969595 C 4535.635087 2207.899058 4548.884198 2173.098697 4564.972405 2155.766222 C 4581.060611 2138.433746 4599.717523 2138.433746 4609.181174 2162.40131 C 4618.50963 2186.504284 4618.50963 2234.574821 4643.926292 2292.124056 C 4669.342955 2349.67329 4720.041085 2416.430402 4716.12043 2494.020312 C 4712.064579 2571.474811 4653.254748 2659.762108 4623.782235 2776.079267 C 4594.444918 2892.396426 4594.444918 3036.743448 4607.829224 3193.277366 C 4621.21353 3349.675874 4647.846948 3518.12587 4669.342955 3627.80794 C 4690.703767 3737.354601 4706.656779 3788.133338 4702.736123 3869.785546 C 4698.680273 3951.302344 4674.61556 4063.557204 4637.166542 4109.054952 C 4599.717523 4154.5527 4549.019393 4133.157926 4539.555742 4072.900492 C 4530.227286 4012.778468 4562.268504 3913.793784 4603.773374 3790.841537 C 4645.278243 3667.88929 4695.976373 3520.834069 4717.47238 3393.819523 C 4738.833192 3266.804976 4730.856686 3159.831105 4724.096935 3054.211333 C 4717.47238 2948.591561 4712.064579 2844.325889 4718.82433 2753.330393 C 4725.448885 2662.470307 4744.105797 2584.880398 4758.842054 2511.352787 C 4773.57831 2437.825177 4784.258716 2368.359865 4770.87441 2336.267704 C 4757.490104 2304.175542 4720.041085 2309.456531 4720.041085 2314.872929 C 4720.041085 2320.153918 4757.490104 2325.570317 4839.147892 2314.872929 C 4920.670484 2304.175542 5046.266652 2277.364369 5170.646064 2255.969595 C 5295.025476 2234.574821 5417.917743 2218.596445 5484.839275 2191.785272 C 5551.625611 2165.109509 5562.441212 2127.600949 5514.311787 2112.976673 C 5466.182363 2098.216987 5359.107912 2106.206175 5220.127439 2122.319961 C 5081.01177 2138.433746 4909.990078 2162.40131 4801.698873 2182.441985 C 4693.407667 2202.482659 4647.846948 2218.596445 4623.782235 2186.504284 C 4599.717523 2154.412122 4597.148818 2074.114014 4587.685167 1904.445329 C 4578.356711 1734.641234 4562.268504 1475.195743 4556.995899 1324.213633 C 4551.588098 1173.096113 4556.995899 1130.306564 4618.50963 1094.152104 C 4680.023361 1058.133054 4797.643022 1028.613682 4924.726335 1015.343505 C 5051.674452 1001.937919 5188.086221 1004.646118 5260.280358 1050.008456 C 5332.474495 1095.506204 5340.451 1183.7935 5367.219613 1308.099847 C 5393.853031 1432.406194 5439.41375 1592.867001 5474.158868 1731.933034 C 5508.903987 1870.999068 5532.968699 1988.670326 5532.968699 2006.002802 C 5532.968699 2023.335277 5508.903987 1940.464379 5488.895125 1841.479695 C 5468.751068 1742.630422 5452.798056 1627.667362 5451.446106 1568.764028 C 5450.094156 1509.996104 5463.478462 1507.287904 5491.46383 1508.642004 C 5519.584393 1509.996104 5562.441212 1515.277092 5627.875598 1519.339391 C 5693.44518 1523.40169 5781.592328 1525.974479 5881.907028 1544.661054 C 5982.221728 1563.483039 6094.433589 1598.14799 6176.091377 1675.737899 C 6257.61397 1753.327809 6308.447295 1873.707267 6344.544363 1973.91064 C 6380.641432 2074.114014 6402.002244 2154.412122 6422.011106 2215.888246 C 6442.155163 2277.364369 6460.812075 2320.153918 6500.964994 2348.319191 C 6541.117913 2376.349053 6602.496449 2389.75464 6641.297417 2428.481889 C 6680.098386 2467.209139 6696.186593 2531.393462 6696.186593 2610.337471 C 6696.186593 2689.14607 6680.098386 2782.849765 6660.089524 2818.868815 C 6639.945467 2855.023276 6615.880755 2833.628502 6565.182625 2761.454991 C 6514.3493 2689.14607 6436.747362 2566.193823 6372.529731 2451.230763 C 6308.447295 2336.267704 6257.61397 2229.293832 6280.326732 2249.334507 C 6303.039494 2269.375182 6399.298344 2416.430402 6464.867925 2532.747562 C 6530.302312 2649.064721 6565.182625 2734.643818 6606.552299 2821.577015 C 6648.057168 2908.510212 6696.186593 2996.662098 6732.148466 3107.698269 C 6768.38073 3218.599029 6792.445442 3352.384074 6789.741542 3468.701233 C 6787.037642 3585.018392 6757.565129 3683.867665 6747.019918 3685.221765 C 6736.204317 3686.575865 6744.316017 3590.29938 6757.565129 3514.063571 C 6770.949435 3437.963171 6789.741542 3381.768036 6813.806254 3308.240425 C 6837.870967 3234.712815 6867.208284 3143.717319 6918.041609 3050.149034 C 6968.874934 2956.580749 7041.069071 2860.304264 7115.967109 2833.628502 C 7190.865146 2806.817329 7268.331889 2849.606877 7353.910332 2893.750526 C 7439.488775 2937.894174 7533.043724 2983.391922 7511.682912 2988.67291 C 7490.3221 2994.089309 7353.910332 2959.288948 7251.026927 2915.1453 C 7148.008327 2871.001652 7078.51809 2817.514716 7043.772972 2761.454991 C 7009.027853 2705.259856 7009.027853 2646.356521 7030.388665 2604.921072 C 7051.749477 2563.485623 7094.606297 2539.38265 7107.855408 2486.031124 C 7121.239714 2432.544188 7105.286703 2349.67329 7103.934752 2280.072569 C 7102.582802 2210.607257 7115.967109 2154.412122 7138.679871 2103.633386 C 7161.392633 2052.854649 7193.433851 2007.356901 7221.554414 1963.213253 C 7249.674977 1919.069605 7273.739689 1876.280056 7293.748551 1834.844607 C 7313.757413 1793.409158 7329.84562 1753.327809 7340.526026 1706.475961 C 7351.206432 1659.759524 7356.614232 1606.272588 7363.238788 1583.523714 C 7369.998538 1560.77484 7377.975044 1568.764028 7368.646588 1540.734165 C 7359.318132 1512.704303 7332.54952 1448.51998 7217.498564 1374.992369 C 7102.582802 1301.464759 6899.384698 1218.458451 6678.746436 1179.731201 C 6458.108174 1141.003952 6220.164951 1146.28494 6047.656114 1151.701339 C 5875.147278 1156.982327 5768.343217 1162.398726 5657.348111 1136.941653 C 5546.353006 1111.619989 5431.302049 1055.424854 5396.556931 1051.362555 C 5361.811813 1047.435667 5407.237337 1095.506204 5472.806918 1146.28494 C 5538.241305 1197.063677 5623.954943 1250.550613 5736.166804 1286.705073 C 5848.51386 1322.859533 5987.494334 1341.546108 6003.58254 1326.786422 C 6019.670747 1312.162146 5912.731491 1263.956199 5782.944279 1210.469263 C 5653.292261 1156.982327 5500.927481 1098.214403 5356.539207 1051.362555 C 5212.150933 1004.646118 5075.739165 969.845757 4991.512671 948.450983 C 4907.286178 927.056209 4875.24496 919.067021 4843.068547 857.590897 C 4811.027329 795.979363 4778.986111 681.016304 4785.610666 646.351353 C 4792.235222 611.550992 4837.795941 657.04874 4819.003835 747.908826 C 4800.346923 838.768912 4717.47238 975.262156 4621.21353 1062.059943 C 4524.954681 1148.99314 4415.311525 1186.36629 4312.292925 1205.188275 C 4209.40952 1223.87485 4113.015476 1223.87485 4019.460527 1213.177462 C 3925.905577 1202.480075 3835.054529 1181.085301 3757.452591 1144.930841 C 3679.850653 1108.91179 3615.768217 1058.133054 3571.694643 996.65693 C 3527.485874 935.045396 3503.421161 862.871886 3504.773111 848.1122 C 3506.125061 833.487923 3532.893674 876.277472 3556.958386 957.79427 C 3581.023099 1039.311069 3602.383911 1159.690527 3598.32806 1259.8939 C 3594.407405 1360.232683 3564.934892 1440.530792 3550.198636 1513.922992 C 3535.462379 1587.586013 3535.462379 1654.343125 3560.879042 1711.89236 C 3586.295704 1769.306185 3637.129029 1817.512132 3655.921136 1808.168844 C 3674.578048 1798.825557 3661.193742 1731.933034 3626.448623 1629.021462 C 3591.703505 1525.974479 3535.462379 1387.043856 3486.1162 1223.87485 C 3436.634825 1060.705843 3393.778005 873.569273 3363.088738 775.938689 C 3332.264274 678.443515 3313.607363 670.318917 2758.767029 668.964817 C 2203.926694 667.746127 1112.902938 673.027116 22.014377 678.443515 " stroke="#000000" stroke-width="33.648998" stroke-opacity="1" stroke-miterlimit="22.926001"/></g><path fill="#acc2df" d="M 278.101562 113.730469 C 284.351562 127.957031 281.847656 142.542969 274.238281 150.398438 C 266.628906 158.253906 245.074219 173.679688 227.226562 145.621094 C 209.382812 117.558594 248.675781 91.929688 266.324219 102.761719 C 277.238281 109.457031 278.101562 113.730469 278.101562 113.730469 Z M 278.101562 113.730469 " fill-opacity="1" fill-rule="nonzero"/><g fill="#3d3d3d" fill-opacity="1"><g transform="translate(114.066434, 274.650474)"><g><path d="M 8.625 -18.9375 L 0.8125 -18.9375 L 0.8125 -18.484375 L 3.234375 -18.484375 L 3.234375 -0.453125 L 0.8125 -0.453125 L 0.8125 0 L 8.390625 0 L 8.390625 -0.453125 L 5.96875 -0.453125 L 5.96875 -8.703125 L 8.90625 -8.703125 C 9.726562 -8.703125 10.484375 -8.820312 11.171875 -9.0625 C 11.859375 -9.3125 12.441406 -9.660156 12.921875 -10.109375 C 13.410156 -10.566406 13.789062 -11.109375 14.0625 -11.734375 C 14.34375 -12.359375 14.484375 -13.054688 14.484375 -13.828125 C 14.484375 -14.578125 14.34375 -15.265625 14.0625 -15.890625 C 13.789062 -16.523438 13.398438 -17.066406 12.890625 -17.515625 C 12.390625 -17.972656 11.773438 -18.320312 11.046875 -18.5625 C 10.328125 -18.8125 9.519531 -18.9375 8.625 -18.9375 Z M 5.96875 -9.15625 L 5.96875 -18.484375 L 8.625 -18.484375 C 9.675781 -18.484375 10.492188 -18.164062 11.078125 -17.53125 C 11.671875 -16.90625 11.96875 -15.84375 11.96875 -14.34375 L 11.96875 -13.328125 C 11.96875 -11.878906 11.675781 -10.820312 11.09375 -10.15625 C 10.507812 -9.488281 9.78125 -9.15625 8.90625 -9.15625 Z M 5.96875 -9.15625 "/></g></g></g><g fill="#3d3d3d" fill-opacity="1"><g transform="translate(128.207092, 274.650474)"><g><path d="M 14.875 -1.21875 C 14.820312 -1.40625 14.78125 -1.664062 14.75 -2 C 14.71875 -2.332031 14.695312 -2.695312 14.6875 -3.09375 C 14.675781 -3.488281 14.664062 -3.894531 14.65625 -4.3125 C 14.65625 -4.726562 14.625 -5.125 14.5625 -5.5 C 14.445312 -6.25 14.257812 -6.863281 14 -7.34375 C 13.738281 -7.832031 13.421875 -8.234375 13.046875 -8.546875 C 12.671875 -8.859375 12.238281 -9.101562 11.75 -9.28125 C 11.257812 -9.457031 10.734375 -9.625 10.171875 -9.78125 C 11.640625 -10.039062 12.765625 -10.5625 13.546875 -11.34375 C 14.335938 -12.125 14.734375 -13.101562 14.734375 -14.28125 C 14.734375 -15.007812 14.578125 -15.664062 14.265625 -16.25 C 13.953125 -16.832031 13.53125 -17.320312 13 -17.71875 C 12.476562 -18.113281 11.859375 -18.414062 11.140625 -18.625 C 10.421875 -18.832031 9.65625 -18.9375 8.84375 -18.9375 L 0.90625 -18.9375 L 0.90625 -18.484375 L 3.328125 -18.484375 L 3.328125 -0.453125 L 0.90625 -0.453125 L 0.90625 0 L 8.484375 0 L 8.484375 -0.453125 L 6.0625 -0.453125 L 6.0625 -9.65625 L 8.390625 -9.65625 C 8.691406 -9.65625 9.007812 -9.601562 9.34375 -9.5 C 9.6875 -9.40625 10.003906 -9.210938 10.296875 -8.921875 C 10.585938 -8.628906 10.835938 -8.222656 11.046875 -7.703125 C 11.265625 -7.191406 11.421875 -6.53125 11.515625 -5.71875 C 11.578125 -5.226562 11.613281 -4.726562 11.625 -4.21875 C 11.632812 -3.71875 11.660156 -3.234375 11.703125 -2.765625 C 11.753906 -2.296875 11.835938 -1.863281 11.953125 -1.46875 C 12.078125 -1.070312 12.269531 -0.734375 12.53125 -0.453125 C 12.78125 -0.191406 13.066406 -0.015625 13.390625 0.078125 C 13.722656 0.171875 14.078125 0.21875 14.453125 0.21875 C 14.773438 0.21875 15.09375 0.1875 15.40625 0.125 C 15.726562 0.0625 16.023438 -0.015625 16.296875 -0.109375 C 16.566406 -0.203125 16.800781 -0.300781 17 -0.40625 C 17.195312 -0.507812 17.34375 -0.609375 17.4375 -0.703125 C 17.488281 -0.753906 17.515625 -0.8125 17.515625 -0.875 C 17.515625 -0.925781 17.488281 -0.953125 17.4375 -0.953125 C 17.394531 -0.953125 17.335938 -0.9375 17.265625 -0.90625 C 16.890625 -0.632812 16.46875 -0.5 16 -0.5 C 15.414062 -0.5 15.039062 -0.738281 14.875 -1.21875 Z M 6.0625 -10.109375 L 6.0625 -18.484375 L 8.84375 -18.484375 C 10.988281 -18.484375 12.0625 -17.253906 12.0625 -14.796875 L 12.0625 -13.78125 C 12.0625 -11.332031 10.988281 -10.109375 8.84375 -10.109375 Z M 6.0625 -10.109375 "/></g></g></g><g fill="#3d3d3d" fill-opacity="1"><g transform="translate(144.770336, 274.650474)"><g><path d="M 9.859375 0.53125 C 11.054688 0.53125 12.1875 0.253906 13.25 -0.296875 C 14.3125 -0.847656 15.238281 -1.582031 16.03125 -2.5 C 16.820312 -3.425781 17.445312 -4.484375 17.90625 -5.671875 C 18.363281 -6.867188 18.59375 -8.101562 18.59375 -9.375 C 18.59375 -10.65625 18.363281 -11.890625 17.90625 -13.078125 C 17.445312 -14.273438 16.820312 -15.328125 16.03125 -16.234375 C 15.238281 -17.148438 14.3125 -17.878906 13.25 -18.421875 C 12.1875 -18.960938 11.054688 -19.234375 9.859375 -19.234375 C 8.660156 -19.234375 7.53125 -18.960938 6.46875 -18.421875 C 5.40625 -17.878906 4.476562 -17.148438 3.6875 -16.234375 C 2.894531 -15.328125 2.269531 -14.273438 1.8125 -13.078125 C 1.351562 -11.890625 1.125 -10.65625 1.125 -9.375 C 1.125 -8.101562 1.351562 -6.867188 1.8125 -5.671875 C 2.269531 -4.484375 2.894531 -3.425781 3.6875 -2.5 C 4.476562 -1.582031 5.40625 -0.847656 6.46875 -0.296875 C 7.53125 0.253906 8.660156 0.53125 9.859375 0.53125 Z M 9.859375 -18.734375 C 10.703125 -18.734375 11.453125 -18.601562 12.109375 -18.34375 C 12.765625 -18.082031 13.3125 -17.640625 13.75 -17.015625 C 14.195312 -16.398438 14.535156 -15.582031 14.765625 -14.5625 C 15.003906 -13.550781 15.125 -12.296875 15.125 -10.796875 L 15.125 -7.96875 C 15.125 -5.25 14.671875 -3.234375 13.765625 -1.921875 C 12.867188 -0.617188 11.566406 0.03125 9.859375 0.03125 C 8.148438 0.03125 6.84375 -0.617188 5.9375 -1.921875 C 5.039062 -3.234375 4.59375 -5.25 4.59375 -7.96875 L 4.59375 -10.796875 C 4.59375 -12.253906 4.707031 -13.484375 4.9375 -14.484375 C 5.175781 -15.492188 5.515625 -16.3125 5.953125 -16.9375 C 6.398438 -17.570312 6.953125 -18.03125 7.609375 -18.3125 C 8.265625 -18.59375 9.015625 -18.734375 9.859375 -18.734375 Z M 9.859375 -18.734375 "/></g></g></g><g fill="#3d3d3d" fill-opacity="1"><g transform="translate(163.108251, 274.650474)"><g><path d="M 10.03125 -18.9375 L 2.59375 -18.9375 L 2.59375 -18.484375 L 5.1875 -18.484375 L 5.1875 -0.5 C 5.1875 0.507812 5.046875 1.234375 4.765625 1.671875 C 4.484375 2.117188 3.984375 2.34375 3.265625 2.34375 C 2.890625 2.34375 2.539062 2.269531 2.21875 2.125 C 1.90625 1.988281 1.65625 1.796875 1.46875 1.546875 C 1.914062 1.546875 2.25 1.410156 2.46875 1.140625 C 2.695312 0.867188 2.8125 0.523438 2.8125 0.109375 C 2.8125 -0.203125 2.707031 -0.484375 2.5 -0.734375 C 2.300781 -0.992188 2.003906 -1.125 1.609375 -1.125 C 1.171875 -1.125 0.847656 -0.988281 0.640625 -0.71875 C 0.441406 -0.445312 0.34375 -0.09375 0.34375 0.34375 C 0.34375 0.601562 0.40625 0.878906 0.53125 1.171875 C 0.664062 1.460938 0.863281 1.726562 1.125 1.96875 C 1.382812 2.21875 1.707031 2.425781 2.09375 2.59375 C 2.476562 2.757812 2.925781 2.84375 3.4375 2.84375 C 6.425781 2.84375 7.921875 1.367188 7.921875 -1.578125 L 7.921875 -18.484375 L 10.03125 -18.484375 Z M 10.03125 -18.9375 "/></g></g></g><g fill="#3d3d3d" fill-opacity="1"><g transform="translate(172.40377, 274.650474)"><g><path d="M 6.078125 -9.75 L 8.3125 -9.75 C 8.726562 -9.75 9.054688 -9.6875 9.296875 -9.5625 C 9.535156 -9.4375 9.722656 -9.257812 9.859375 -9.03125 C 10.003906 -8.8125 10.113281 -8.539062 10.1875 -8.21875 C 10.269531 -7.90625 10.347656 -7.550781 10.421875 -7.15625 C 10.484375 -6.894531 10.5625 -6.765625 10.65625 -6.765625 C 10.757812 -6.765625 10.8125 -6.882812 10.8125 -7.125 L 10.8125 -12.84375 C 10.8125 -13.070312 10.757812 -13.1875 10.65625 -13.1875 C 10.5625 -13.1875 10.484375 -13.054688 10.421875 -12.796875 C 10.347656 -12.398438 10.269531 -12.039062 10.1875 -11.71875 C 10.113281 -11.394531 10.003906 -11.117188 9.859375 -10.890625 C 9.722656 -10.671875 9.535156 -10.5 9.296875 -10.375 C 9.054688 -10.257812 8.726562 -10.203125 8.3125 -10.203125 L 6.078125 -10.203125 L 6.078125 -18.484375 L 10.375 -18.484375 C 11.007812 -18.484375 11.539062 -18.328125 11.96875 -18.015625 C 12.40625 -17.703125 12.753906 -17.316406 13.015625 -16.859375 C 13.273438 -16.398438 13.46875 -15.910156 13.59375 -15.390625 C 13.71875 -14.878906 13.785156 -14.414062 13.796875 -14 C 13.796875 -13.738281 13.875 -13.609375 14.03125 -13.609375 C 14.164062 -13.609375 14.234375 -13.726562 14.234375 -13.96875 L 14.234375 -18.25 C 14.234375 -18.707031 13.992188 -18.9375 13.515625 -18.9375 L 0.921875 -18.9375 L 0.921875 -18.484375 L 3.359375 -18.484375 L 3.359375 -0.453125 L 0.953125 -0.453125 L 0.953125 0 L 14.203125 0 C 14.742188 0 15.015625 -0.300781 15.015625 -0.90625 L 15.015625 -5.125 C 15.015625 -5.570312 14.941406 -5.796875 14.796875 -5.796875 C 14.660156 -5.796875 14.554688 -5.601562 14.484375 -5.21875 C 14.328125 -4.5 14.164062 -3.847656 14 -3.265625 C 13.832031 -2.679688 13.609375 -2.175781 13.328125 -1.75 C 13.046875 -1.332031 12.6875 -1.007812 12.25 -0.78125 C 11.820312 -0.5625 11.28125 -0.453125 10.625 -0.453125 L 6.078125 -0.453125 Z M 6.078125 -9.75 "/></g></g></g><g fill="#3d3d3d" fill-opacity="1"><g transform="translate(187.44585, 274.650474)"><g><path d="M 10.171875 -0.453125 L 10.171875 -18.484375 L 12.59375 -18.484375 C 13.457031 -18.484375 14.210938 -18.039062 14.859375 -17.15625 C 15.503906 -16.269531 15.929688 -15.066406 16.140625 -13.546875 L 16.734375 -13.546875 L 16.3125 -18.453125 C 16.289062 -18.773438 16.101562 -18.9375 15.75 -18.9375 L 1.859375 -18.9375 C 1.503906 -18.9375 1.316406 -18.773438 1.296875 -18.453125 L 0.875 -13.546875 L 1.46875 -13.546875 C 1.675781 -15.066406 2.101562 -16.269531 2.75 -17.15625 C 3.394531 -18.039062 4.148438 -18.484375 5.015625 -18.484375 L 7.4375 -18.484375 L 7.4375 -0.453125 L 5.015625 -0.453125 L 5.015625 0 L 12.59375 0 L 12.59375 -0.453125 Z M 10.171875 -0.453125 "/></g></g></g><g fill="#3d3d3d" fill-opacity="1"><g transform="translate(203.75557, 274.650474)"><g/></g></g><g fill="#3d3d3d" fill-opacity="1"><g transform="translate(210.205973, 274.650474)"><g><path d="M 10.171875 -0.453125 L 10.171875 -18.484375 L 12.59375 -18.484375 C 13.457031 -18.484375 14.210938 -18.039062 14.859375 -17.15625 C 15.503906 -16.269531 15.929688 -15.066406 16.140625 -13.546875 L 16.734375 -13.546875 L 16.3125 -18.453125 C 16.289062 -18.773438 16.101562 -18.9375 15.75 -18.9375 L 1.859375 -18.9375 C 1.503906 -18.9375 1.316406 -18.773438 1.296875 -18.453125 L 0.875 -13.546875 L 1.46875 -13.546875 C 1.675781 -15.066406 2.101562 -16.269531 2.75 -17.15625 C 3.394531 -18.039062 4.148438 -18.484375 5.015625 -18.484375 L 7.4375 -18.484375 L 7.4375 -0.453125 L 5.015625 -0.453125 L 5.015625 0 L 12.59375 0 L 12.59375 -0.453125 Z M 10.171875 -0.453125 "/></g></g></g><g fill="#3d3d3d" fill-opacity="1"><g transform="translate(226.515693, 274.650474)"><g><path d="M 9.21875 -18.9375 L 0.90625 -18.9375 L 0.90625 -18.484375 L 3.375 -18.484375 L 3.375 -0.453125 L 0.90625 -0.453125 L 0.90625 0 L 9.21875 0 C 10.53125 0 11.726562 -0.226562 12.8125 -0.6875 C 13.90625 -1.144531 14.835938 -1.796875 15.609375 -2.640625 C 16.378906 -3.492188 16.972656 -4.515625 17.390625 -5.703125 C 17.816406 -6.898438 18.03125 -8.226562 18.03125 -9.6875 C 18.03125 -11.0625 17.8125 -12.316406 17.375 -13.453125 C 16.945312 -14.585938 16.34375 -15.5625 15.5625 -16.375 C 14.78125 -17.195312 13.847656 -17.828125 12.765625 -18.265625 C 11.691406 -18.710938 10.507812 -18.9375 9.21875 -18.9375 Z M 14.9375 -10.390625 L 14.9375 -8.984375 C 14.9375 -7.316406 14.78125 -5.929688 14.46875 -4.828125 C 14.15625 -3.734375 13.734375 -2.859375 13.203125 -2.203125 C 12.679688 -1.554688 12.070312 -1.101562 11.375 -0.84375 C 10.6875 -0.582031 9.945312 -0.453125 9.15625 -0.453125 L 6.109375 -0.453125 L 6.109375 -18.484375 L 9.15625 -18.484375 C 9.925781 -18.484375 10.65625 -18.34375 11.34375 -18.0625 C 12.039062 -17.789062 12.65625 -17.34375 13.1875 -16.71875 C 13.726562 -16.09375 14.15625 -15.257812 14.46875 -14.21875 C 14.78125 -13.1875 14.9375 -11.910156 14.9375 -10.390625 Z M 14.9375 -10.390625 "/></g></g></g><g fill="#3d3d3d" fill-opacity="1"><g transform="translate(244.036688, 274.650474)"><g><path d="M 15.640625 -5.21875 C 15.484375 -4.5 15.320312 -3.847656 15.15625 -3.265625 C 14.988281 -2.679688 14.765625 -2.175781 14.484375 -1.75 C 14.203125 -1.332031 13.84375 -1.007812 13.40625 -0.78125 C 12.976562 -0.5625 12.4375 -0.453125 11.78125 -0.453125 L 6 -0.453125 L 6 -18.484375 L 8.671875 -18.484375 L 8.671875 -18.9375 L 0.84375 -18.9375 L 0.84375 -18.484375 L 3.265625 -18.484375 L 3.265625 -0.453125 L 0.84375 -0.453125 L 0.84375 0 L 15.359375 0 C 15.898438 0 16.171875 -0.300781 16.171875 -0.90625 L 16.171875 -5.125 C 16.171875 -5.570312 16.09375 -5.796875 15.9375 -5.796875 C 15.8125 -5.796875 15.710938 -5.601562 15.640625 -5.21875 Z M 15.640625 -5.21875 "/></g></g></g></svg>