<svg width="50" height="50" viewBox="0 0 50 50" fill="none" xmlns="http://www.w3.org/2000/svg">
<path d="M49.6551 20.9501C47.6638 9.28581 37.5093 0.825783 25.6567 0.00374547C24.4579 -0.0793648 23.7199 1.23909 24.4824 2.12438C27.5222 5.65361 29.3302 10.1828 29.2802 15.1155C29.1676 26.2272 19.5286 35.2148 7.86598 35.0935C5.74804 35.0715 3.70471 34.753 1.7795 34.1799C0.626777 33.8367 -0.386549 34.9754 0.14561 36.0083C5.10887 45.6406 16.2514 51.4836 27.9441 49.6716C42.264 47.4524 51.9844 34.5933 49.6551 20.9501V20.9501Z" fill="#DFDFDF"/>
<path d="M2.90059 40.2277C5.10106 40.744 7.40972 41.03 9.79097 41.0527C25.0188 41.1978 37.6045 30.4536 37.7516 17.1704C37.8168 11.2736 31.1633 1.18623 31.1119 0.94556C29.3526 0.453417 27.5258 0.133402 25.6567 0.00374547C24.4579 -0.0793648 23.7199 1.23909 24.4824 2.12438C27.5223 5.65361 29.3302 10.1828 29.2802 15.1155C29.1676 26.2272 19.5286 35.2148 7.86598 35.0935C5.74793 35.0715 3.70471 34.753 1.7795 34.1799C0.626777 33.8367 -0.386549 34.9754 0.14561 36.0083C0.920545 37.512 1.846 38.9234 2.90059 40.2277Z" fill="white" fill-opacity="0.65"/>
<path d="M20.0337 21.0286C19.1543 20.4851 18.4313 19.8064 17.8752 18.9835C17.616 18.6001 17.0279 18.5934 16.7502 18.965C16.1869 19.7191 15.4645 20.3843 14.6014 20.9707C14.204 21.2407 14.2207 21.816 14.6344 22.0628C15.4952 22.5764 16.2165 23.2414 16.7786 24.0788C17.0376 24.4647 17.6316 24.4661 17.8978 24.0847C18.442 23.3052 19.1726 22.6616 20.0396 22.1174C20.4539 21.8576 20.4497 21.2857 20.0337 21.0286V21.0286Z" fill="#DFDFDF"/>
<path d="M6.91118 8.89528C6.0317 8.3518 5.30872 7.67307 4.75261 6.85022C4.49348 6.46675 3.9053 6.46013 3.62768 6.83168C3.0643 7.58579 2.34197 8.25097 1.47884 8.83743C1.08148 9.10744 1.09816 9.68269 1.51187 9.92947C2.37265 10.4431 3.09392 11.1081 3.65601 11.9455C3.91503 12.3314 4.50909 12.3328 4.77527 11.9514C5.31941 11.1718 6.05008 10.5283 6.91706 9.98407C7.3312 9.72424 7.32714 9.15225 6.91118 8.89528V8.89528Z" fill="#DFDFDF"/>
<path d="M16.5483 11.2351C16.1055 11.2351 15.7466 10.8931 15.7466 10.4713V7.6119C15.7466 7.19004 16.1055 6.84802 16.5483 6.84802C16.9912 6.84802 17.3501 7.19004 17.3501 7.6119V10.4712C17.3501 10.8931 16.9912 11.2351 16.5483 11.2351V11.2351Z" fill="white"/>
<path d="M18.0489 9.80547H15.0479C14.605 9.80547 14.2461 9.46346 14.2461 9.04159C14.2461 8.61972 14.605 8.27771 15.0479 8.27771H18.0489C18.4918 8.27771 18.8507 8.61972 18.8507 9.04159C18.8507 9.46346 18.4918 9.80547 18.0489 9.80547Z" fill="white"/>
<path d="M4.6753 25.3686C4.23241 25.3686 3.87354 25.0266 3.87354 24.6047V21.7454C3.87354 21.3236 4.23241 20.9816 4.6753 20.9816C5.1182 20.9816 5.47707 21.3236 5.47707 21.7454V24.6047C5.47707 25.0266 5.11809 25.3686 4.6753 25.3686Z" fill="white"/>
<path d="M6.17564 23.9389H3.17457C2.73167 23.9389 2.3728 23.5969 2.3728 23.175C2.3728 22.7531 2.73167 22.4111 3.17457 22.4111H6.17564C6.61853 22.4111 6.9774 22.7531 6.9774 23.175C6.9774 23.5969 6.61843 23.9389 6.17564 23.9389Z" fill="white"/>
</svg>
